<?xml version="1.0" encoding="utf-8"?>
<!-- Generator: Adobe Illustrator 24.1.1, SVG Export Plug-In . SVG Version: 6.00 Build 0)  -->
<svg version="1.1" id="Layer_1" xmlns="http://www.w3.org/2000/svg" xmlns:xlink="http://www.w3.org/1999/xlink" x="0px" y="0px"
	 viewBox="0 0 1920 1080" style="enable-background:new 0 0 1920 1080;" xml:space="preserve">
<style type="text/css">
	.st0{fill:url(#SVGID_1_);}
	.st1{fill:#FFFFFF;}
	.st2{fill:url(#SVGID_2_);}
	.st3{fill:url(#SVGID_3_);}
</style>
<g>
	<linearGradient id="SVGID_1_" gradientUnits="userSpaceOnUse" x1="742.5956" y1="333.246" x2="742.5956" y2="790.5886">
		<stop  offset="0" style="stop-color:#CB00EF"/>
		<stop  offset="1" style="stop-color:#44007A"/>
	</linearGradient>
	<path class="st0" d="M859.31,353.44h-55.88c-54.47-55.07-97.98-110.9-129.04-155.09h47.49c-14.14-19.01-26.41-36.61-36.7-52.02
		h-99.92c0,0,91.56,196.34,259.56,329.28V685.3v76.14v53.6l55.11,55.11v-53.59V685.3V389.45
		C885.87,377.68,872.32,365.64,859.31,353.44z"/>
	<path class="st1" d="M1232.38,146.33h-99.92c-10.29,15.41-22.56,33.01-36.7,52.02h47.49c-31.07,44.19-74.57,100.03-129.04,155.09
		h-55.88c-13.01,12.19-26.56,24.24-40.62,36.01V685.3v131.26v53.59l55.11-55.11V685.3h0V475.61
		C1140.82,342.67,1232.38,146.33,1232.38,146.33z"/>
	<linearGradient id="SVGID_2_" gradientUnits="userSpaceOnUse" x1="1132.1335" y1="333.246" x2="1132.1335" y2="790.5886">
		<stop  offset="0" style="stop-color:#CB00EF"/>
		<stop  offset="1" style="stop-color:#44007A"/>
	</linearGradient>
	<path class="st2" d="M1202.56,440.26c20.75-24.38,40.17-49.27,58.27-74.53V224.51c-20.92,39.49-45.52,78.57-73.69,116.6
		l-20.23-51.87l1.85,53.22c0.28,8.06,0.19,15.83-0.2,23.33c-0.05,0.95-0.1,1.89-0.16,2.83c-0.03,0.44-0.06,0.88-0.09,1.32
		c-0.06,0.94-0.13,1.89-0.2,2.82c-0.02,0.32-0.05,0.63-0.08,0.95c-0.17,2.05-0.36,4.08-0.57,6.08c-0.02,0.17-0.03,0.35-0.05,0.52
		c-0.09,0.87-0.2,1.74-0.3,2.61c-0.06,0.48-0.11,0.96-0.17,1.43c-0.1,0.81-0.2,1.62-0.31,2.42c-0.07,0.52-0.14,1.04-0.21,1.55
		c-0.11,0.78-0.22,1.56-0.33,2.33c-0.08,0.53-0.16,1.05-0.24,1.57c-0.2,1.32-0.42,2.63-0.64,3.92c-0.1,0.58-0.2,1.17-0.3,1.75
		c-0.12,0.67-0.24,1.33-0.37,1.99c-0.11,0.61-0.23,1.21-0.34,1.81c-0.12,0.64-0.25,1.27-0.38,1.9c-0.13,0.63-0.26,1.25-0.39,1.87
		c-0.12,0.59-0.25,1.19-0.38,1.78c-0.16,0.72-0.32,1.44-0.48,2.16c-0.13,0.57-0.25,1.13-0.39,1.69c-0.24,1.03-0.48,2.05-0.73,3.06
		c-12.74,51.65-37.49,81.2-38.94,82.89l-4.98,5.82l-7.59,1.01c-10.14,1.35-20.3,2.03-30.19,2.03c0,0,0,0-0.01,0
		c-10.39,0-19.93-0.74-28.58-1.93l0,0c0,0-0.01,0-0.01,0c-1.29-0.18-2.55-0.37-3.8-0.57c-0.62-0.1-1.22-0.2-1.83-0.3
		c-0.88-0.15-1.74-0.3-2.6-0.46c-0.51-0.09-1.02-0.18-1.52-0.28c-1.23-0.23-2.44-0.48-3.63-0.73c-11.96-2.52-21.69-5.79-28.99-8.78
		l-5.36-2.19l12.93,28.02v276.54h0v37.9l102.42,42.51l142.02-142.02v-49.5V508.16c-18.16,20.9-36.77,41.01-55.76,60.31
		c-4.79,4.88-9.61,9.7-14.46,14.47c-14.39,14.18-28.98,27.91-43.76,41.16h43.76v80.73l-88.2,88.2l-15.8-6.56V557.82
		C1126.98,522.59,1165.89,483.33,1202.56,440.26z"/>
	<path class="st1" d="M814.2,490.66l-5.36,2.19c-7.3,2.99-17.04,6.26-29,8.78c-1.19,0.25-2.39,0.49-3.62,0.73
		c-0.5,0.1-1.02,0.18-1.53,0.28c-0.85,0.16-1.72,0.31-2.59,0.45c-0.61,0.1-1.22,0.2-1.83,0.3c-9.63,1.52-20.44,2.5-32.38,2.5
		c0,0,0,0-0.01,0c-9.9,0-20.05-0.68-30.19-2.03l-7.59-1.01l-4.98-5.82c-1.45-1.7-26.19-31.24-38.94-82.89c-0.25-1-0.49-2-0.72-3.02
		c-0.14-0.58-0.27-1.17-0.4-1.76c-0.16-0.71-0.32-1.41-0.47-2.13c-0.13-0.59-0.25-1.19-0.38-1.79c-0.13-0.61-0.26-1.23-0.38-1.85
		c-0.13-0.64-0.25-1.27-0.38-1.92c-0.11-0.59-0.23-1.19-0.34-1.79c-0.12-0.67-0.25-1.33-0.37-2c-0.1-0.56-0.19-1.13-0.29-1.7
		c-0.23-1.32-0.44-2.66-0.65-4c-0.08-0.51-0.16-1.02-0.24-1.53c-0.12-0.78-0.22-1.56-0.33-2.35c-0.07-0.51-0.14-1.02-0.21-1.53
		c-0.11-0.81-0.21-1.61-0.31-2.43c-0.06-0.48-0.11-0.95-0.17-1.43c-0.1-0.87-0.2-1.73-0.3-2.61c-0.02-0.17-0.03-0.34-0.05-0.5
		c-0.21-2.01-0.4-4.05-0.57-6.11c-0.02-0.31-0.05-0.62-0.08-0.93c-0.07-0.94-0.14-1.88-0.2-2.83c-0.03-0.43-0.06-0.87-0.09-1.3
		c-0.06-0.94-0.11-1.89-0.16-2.84c-0.39-7.5-0.48-15.27-0.2-23.33l1.85-53.22l-20.23,51.88c-28.17-38.03-52.77-77.11-73.69-116.6
		v141.22c18.09,25.26,37.51,50.15,58.26,74.52c36.67,43.08,75.58,82.34,115.96,117.57v29.61l-69.92,19.64l69.92,179.4l-15.8,6.56
		l-88.2-88.2V509.29c-23.99-19.09-47.47-39.85-70.22-62.21v286.53l142.02,142.02l102.42-42.51v-48.48l-42.55-109.18l-9.2-23.6
		l16.21-4.56l35.54-9.98V518.68l0.01,0L814.2,490.66z"/>
	<g>
		<path class="st1" d="M1123.67,371.38c-28.56,33.55-59.39,63.21-91.49,88.7c11.66,4.77,35.75,11.83,69.26,7.38
			c0,0,33.91-39.68,31.56-107.29C1129.94,363.92,1126.84,367.66,1123.67,371.38z"/>
	</g>
	<g>
		<linearGradient id="SVGID_3_" gradientUnits="userSpaceOnUse" x1="734.9943" y1="333.246" x2="734.9943" y2="790.5886">
			<stop  offset="0" style="stop-color:#CB00EF"/>
			<stop  offset="1" style="stop-color:#44007A"/>
		</linearGradient>
		<path class="st3" d="M705.19,450.59c-9.67-17.7-22-48.76-20.55-90.42c3.06,3.76,6.17,7.49,9.33,11.21
			c28.56,33.55,59.39,63.21,91.49,88.7c-11.66,4.77-35.75,11.83-69.26,7.38C716.21,467.46,711.21,461.61,705.19,450.59
			L705.19,450.59z"/>
	</g>
</g>
</svg>
